<svg width="358" height="680" viewBox="0 0 358 680" fill="none" xmlns="http://www.w3.org/2000/svg">
<rect y="140" width="358" height="540" fill="#202024"/>
<mask id="mask0_" style="mask-type:alpha" maskUnits="userSpaceOnUse" x="0" y="140" width="358" height="540">
<rect y="140" width="358" height="540" fill="#202024"/>
</mask>
<g mask="url(#mask0_)">
<path d="M358 201.492V-256.824L178.5 -360L-1 -256.824V201.492L178.5 304.674L358 201.492Z" fill="url(#paint0_linear_)"/>
<g style="mix-blend-mode:luminosity" opacity="0.4">
<path d="M0.800786 99.3496V202.159L90.1006 253.569L179.4 202.159V99.3496L90.1006 47.9399L0.800786 99.3496Z" fill="url(#paint1_linear_)"/>
<path d="M0.800786 -3.46505V99.3445L90.1006 150.754L179.4 99.3445V-3.46505L90.1006 -54.8747L0.800786 -3.46505Z" fill="url(#paint2_linear_)"/>
<path d="M179.4 202.159V99.3492L268.7 47.9395L358 99.3492V202.159L268.7 253.568L179.4 202.159Z" fill="url(#paint3_linear_)"/>
<path d="M358 -3.46505V99.3445L268.7 150.754L179.4 99.3445V-3.46505L268.7 -54.8747L358 -3.46505Z" fill="url(#paint4_linear_)"/>
<path d="M268.7 253.59V150.781L179.4 99.3711L90.1006 150.781L90.1006 253.59L179.4 305L268.7 253.59Z" fill="url(#paint5_linear_)"/>
</g>
</g>
<rect x="139" y="156" width="80" height="8" fill="#121214"/>
<rect x="147" width="64" height="158" fill="url(#paint6_linear_)"/>
<defs>
<linearGradient id="paint0_linear_" x1="-1.00001" y1="-344.234" x2="438.976" y2="-283.679" gradientUnits="userSpaceOnUse">
<stop stop-color="#1F0566"/>
<stop offset="1" stop-color="#D831D2"/>
</linearGradient>
<linearGradient id="paint1_linear_" x1="179.4" y1="248.691" x2="-33.2156" y2="201.634" gradientUnits="userSpaceOnUse">
<stop stop-color="#1F0566"/>
<stop offset="1" stop-color="#D831D2"/>
</linearGradient>
<linearGradient id="paint2_linear_" x1="179.4" y1="145.877" x2="-33.2156" y2="98.8192" gradientUnits="userSpaceOnUse">
<stop stop-color="#1F0566"/>
<stop offset="1" stop-color="#D831D2"/>
</linearGradient>
<linearGradient id="paint3_linear_" x1="358" y1="207.937" x2="179.676" y2="100.328" gradientUnits="userSpaceOnUse">
<stop stop-color="#0500FF" stop-opacity="0"/>
<stop offset="1" stop-color="#FA1EFF"/>
</linearGradient>
<linearGradient id="paint4_linear_" x1="179.4" y1="145.877" x2="392.016" y2="98.8193" gradientUnits="userSpaceOnUse">
<stop stop-color="#1F0566"/>
<stop offset="1" stop-color="#D831D2"/>
</linearGradient>
<linearGradient id="paint5_linear_" x1="90.1006" y1="104.249" x2="302.717" y2="151.306" gradientUnits="userSpaceOnUse">
<stop stop-color="#1F0566"/>
<stop offset="1" stop-color="#D831D2"/>
</linearGradient>
<linearGradient id="paint6_linear_" x1="108.5" y1="4.93019e-08" x2="241" y2="158" gradientUnits="userSpaceOnUse">
<stop stop-color="#1F0566"/>
<stop offset="1" stop-color="#D831D2"/>
</linearGradient>
</defs>
</svg>
